<svg width="64" height="64" viewBox="0 0 64 64" fill="none" xmlns="http://www.w3.org/2000/svg">
<g clip-path="url(#clip0_4_44)">
<path d="M39.568 47.4H24.251C24.608 47.4 24.896 50.911 24.896 55.236C24.896 59.564 24.609 63.075 24.251 63.075H39.568C39.212 63.075 38.923 59.564 38.923 55.236C38.925 50.911 39.212 47.4 39.568 47.4Z" fill="#BFBEBE"/>
<path d="M29.615 47.4H24.252C24.609 47.4 24.897 50.911 24.897 55.236C24.897 59.564 24.61 63.075 24.252 63.075H29.615C29.972 63.075 30.26 59.564 30.26 55.236C30.26 50.911 29.972 47.4 29.615 47.4Z" fill="#AEAEAE"/>
<path d="M63.784 47.31C63.784 51.357 60.734 54.636 56.978 54.636H6.848C3.088 54.636 0.0390015 51.357 0.0390015 47.31V10.19C0.0390015 6.15 3.088 2.869 6.848 2.869H56.978C60.734 2.869 63.784 6.147 63.784 10.19V47.31" fill="#D1D2D2"/>
<path d="M12.93 47.31V10.19C12.93 6.15 15.979 2.869 19.738 2.869H6.844C3.084 2.869 0.0350037 6.147 0.0350037 10.19V47.31C0.0350037 51.357 3.084 54.636 6.844 54.636H19.738C15.979 54.636 12.93 51.356 12.93 47.309" fill="#C6C5C5"/>
<path d="M63.784 36.941C63.784 40.981 60.734 44.261 56.978 44.261H6.848C3.088 44.261 0.0390015 40.984 0.0390015 36.941V10.163C0.0390015 6.116 3.088 2.838 6.848 2.838H56.978C60.734 2.838 63.784 6.116 63.784 10.163V36.941Z" fill="#243438"/>
<path d="M0.0360107 35.05H63.785V46.417H0.0360107V35.05Z" fill="#243438"/>
<path d="M58.75 6.244H5.06899C4.62599 6.244 4.25699 6.489 4.25699 6.784V41.675C4.25699 41.971 4.62599 42.215 5.06899 42.215H58.75C58.991 42.215 59.174 42.164 59.307 42.074L59.327 42.054C59.327 42.054 59.343 42.042 59.347 42.031C59.4125 41.997 59.4678 41.946 59.507 41.8834C59.5462 41.8208 59.568 41.7488 59.57 41.675V6.791C59.566 6.496 59.193 6.251 58.75 6.251" fill="#58C5E8"/>
<path d="M32.698 29.559C41.674 34.937 50.443 38.599 59.566 40.814V6.784C59.566 6.489 59.193 6.244 58.75 6.244H9.48999C14.55 15.779 23.258 23.904 32.7 29.559M32.77 35.27C21.94 29.371 11.097 21.2 4.25699 11.11V41.674C4.25699 41.97 4.62599 42.214 5.06899 42.214H48.882C43.53 40.489 38.193 38.228 32.772 35.274" fill="#28A6DE"/>
<path d="M43.721 62.727C43.721 63.429 43.383 64 42.968 64H20.858C20.439 64 20.101 63.429 20.101 62.727C20.101 62.024 20.439 61.454 20.858 61.454H42.968C43.383 61.451 43.721 62.023 43.721 62.727Z" fill="#D1D2D2"/>
<path d="M27.937 62.727C27.937 62.024 28.275 61.454 28.69 61.454H20.565C20.149 61.454 19.812 62.024 19.812 62.727C19.812 63.429 20.15 64 20.565 64H28.69C28.275 64 27.937 63.429 27.937 62.727Z" fill="#C6C5C5"/>
<path d="M34.33 48.615C34.232 48.521 34.089 48.494 33.894 48.55L32.771 48.837C32.421 48.932 32.244 49.163 32.244 49.535L32.24 50.736C32.24 50.91 32.279 51.039 32.357 51.113C32.39 51.1447 32.4291 51.1693 32.4719 51.1853C32.5147 51.2012 32.5603 51.2083 32.606 51.206C32.666 51.206 32.722 51.193 32.794 51.179L33.916 50.893C34.266 50.799 34.444 50.567 34.448 50.19V48.993C34.445 48.816 34.406 48.689 34.33 48.615M33.734 49.982C33.734 50.115 33.672 50.197 33.545 50.232L33.147 50.336C33.1252 50.3403 33.1032 50.343 33.081 50.344C33.0483 50.3447 33.0164 50.3337 32.991 50.313C32.965 50.288 32.948 50.241 32.953 50.173V49.746C32.953 49.613 33.015 49.531 33.14 49.497L33.543 49.393C33.612 49.377 33.664 49.385 33.694 49.416C33.724 49.443 33.737 49.488 33.737 49.552V49.983H33.734V49.982ZM32.176 48.163C32.176 47.791 32.001 47.559 31.648 47.465L30.526 47.178C30.332 47.122 30.188 47.152 30.095 47.243C30.013 47.317 29.974 47.444 29.974 47.62L29.978 48.815C29.982 49.192 30.157 49.425 30.506 49.518L31.632 49.805C31.698 49.825 31.76 49.832 31.814 49.832C31.8598 49.8345 31.9055 49.8274 31.9484 49.8112C31.9913 49.795 32.0303 49.7701 32.063 49.738C32.141 49.665 32.18 49.537 32.18 49.361L32.176 48.163ZM31.43 48.941C31.41 48.962 31.38 48.972 31.341 48.972C31.341 48.972 31.298 48.968 31.275 48.964L30.875 48.86C30.751 48.825 30.685 48.743 30.685 48.61V48.179C30.685 48.117 30.701 48.071 30.727 48.043C30.758 48.012 30.809 48.004 30.882 48.02L31.282 48.124C31.406 48.158 31.472 48.24 31.472 48.373V48.804C31.472 48.866 31.472 48.913 31.43 48.941M32.965 51.242C32.985 51.242 33.004 51.238 33.031 51.229L33.431 51.126C33.555 51.097 33.621 51.011 33.621 50.874V50.448C33.6226 50.3991 33.609 50.3508 33.582 50.31C33.547 50.276 33.492 50.272 33.427 50.289L33.023 50.392C32.899 50.423 32.836 50.508 32.836 50.644L32.832 51.073C32.832 51.135 32.848 51.177 32.875 51.204C32.895 51.23 32.926 51.242 32.965 51.242ZM32.052 51.242C32.0281 51.2417 32.0044 51.2373 31.982 51.229L31.582 51.126C31.458 51.097 31.395 51.011 31.395 50.874L31.391 50.448C31.391 50.385 31.407 50.343 31.434 50.31C31.465 50.276 31.519 50.272 31.585 50.289L31.993 50.392C32.114 50.423 32.18 50.508 32.18 50.644V51.073C32.18 51.135 32.164 51.177 32.141 51.204C32.1299 51.2165 32.1161 51.2263 32.1007 51.2329C32.0853 51.2395 32.0687 51.2426 32.052 51.242Z" fill="#243438"/>
</g>
<defs>
<clipPath id="clip0_4_44">
<rect width="64" height="64" fill="white"/>
</clipPath>
</defs>
</svg>
