<svg width="114" height="114" viewBox="0 0 114 114" fill="none" xmlns="http://www.w3.org/2000/svg">
<path d="M21.0259 96.9036L13.0245 7.125H100.976L92.9635 96.8893L56.9466 106.875L21.0259 96.9036Z" fill="#1572B6"/>
<path d="M57 99.2441L86.1056 91.1751L92.9527 14.4673H57V99.2441Z" fill="#33A9DC"/>
<path d="M57 46.9929H71.5706L72.5752 35.7176H57V24.7059H84.6094L84.3458 27.6592L81.6418 58.0046H57V46.9929V46.9929Z" fill="white"/>
<path d="M57.0677 75.5891L57.0178 75.6034L44.7557 72.2902L43.972 63.5087H32.9175L34.4601 80.7975L57.0143 87.0604L57.0677 87.0461V75.5891V75.5891Z" fill="#EBEBEB"/>
<path d="M70.6337 57.5379L69.3084 72.2831L57.0285 75.5962V87.0533L79.6005 80.7975L79.7679 78.9379L81.681 57.5379H70.6337V57.5379Z" fill="white"/>
<path d="M57.0392 24.7059V35.7176H30.4416L30.2207 33.2417L29.7184 27.6592L29.4548 24.7059H57.0392V24.7059ZM57 46.9929V58.0046H44.8911L44.6702 55.5287L44.1715 49.9462L43.9078 46.9929H57V46.9929Z" fill="#EBEBEB"/>
</svg>
