<svg width="87" height="106" viewBox="0 0 87 106" fill="none" xmlns="http://www.w3.org/2000/svg">
<g clip-path="url(#clip0_3_31)">
<path d="M21.75 105.811C33.756 105.811 43.5 97.9103 43.5 88.1757V70.5405H21.75C9.744 70.5405 0 78.4411 0 88.1757C0 97.9103 9.744 105.811 21.75 105.811Z" fill="#0ACF83"/>
<path d="M0 52.9054C0 43.1708 9.744 35.2703 21.75 35.2703H43.5V70.5405H21.75C9.744 70.5405 0 62.64 0 52.9054Z" fill="#A259FF"/>
<path d="M0 17.6351C0 7.90054 9.744 0 21.75 0H43.5V35.2703H21.75C9.744 35.2703 0 27.3697 0 17.6351Z" fill="#F24E1E"/>
<path d="M43.5 0H65.25C77.256 0 87 7.90054 87 17.6351C87 27.3697 77.256 35.2703 65.25 35.2703H43.5V0Z" fill="#FF7262"/>
<path d="M87 52.9054C87 62.64 77.256 70.5405 65.25 70.5405C53.244 70.5405 43.5 62.64 43.5 52.9054C43.5 43.1708 53.244 35.2703 65.25 35.2703C77.256 35.2703 87 43.1708 87 52.9054Z" fill="#1ABCFE"/>
</g>
<defs>
<clipPath id="clip0_3_31">
<rect width="87" height="105.811" fill="white"/>
</clipPath>
</defs>
</svg>
