<svg width="95" height="79" viewBox="0 0 95 79" fill="none" xmlns="http://www.w3.org/2000/svg">
<g clip-path="url(#clip0_3_27)">
<path d="M93.2084 35.9804L51.7305 1.49006C49.3432 -0.496355 45.469 -0.496355 43.0788 1.49006L34.4657 8.65252L45.3918 17.7384C47.9308 17.025 50.8424 17.5036 52.8664 19.1867C54.9 20.8806 55.4715 23.3225 54.5927 25.4406L65.1225 34.1973C67.6701 33.4675 70.6095 33.9396 72.6442 35.6344C75.4879 37.9982 75.4879 41.8294 72.6442 44.1948C69.7998 46.5605 65.1926 46.5605 62.3467 44.1948C60.2077 42.4142 59.6793 39.802 60.7622 37.6107L50.9423 29.4446L50.9412 50.9342C51.653 51.2269 52.3032 51.6135 52.8664 52.0791C55.7101 54.4429 55.7101 58.2744 52.8664 60.6416C50.022 63.0061 45.4126 63.0061 42.5722 60.6416C39.7286 58.2744 39.7286 54.4432 42.5722 52.0794C43.2537 51.5124 44.0636 51.0634 44.955 50.7583V29.0685C44.0623 28.7654 43.252 28.3161 42.5722 27.7474C40.4177 25.9582 39.8996 23.3292 41.0036 21.1293L30.233 12.1717L1.79238 35.8208C-0.597461 37.8091 -0.597461 41.0311 1.79238 43.0178L43.271 77.5087C45.659 79.4955 49.5325 79.4955 51.9234 77.5087L93.208 43.178C95.5971 41.1907 95.5971 37.9668 93.208 35.9804" fill="#DE4C36"/>
</g>
<defs>
<clipPath id="clip0_3_27">
<rect width="95" height="79" fill="white"/>
</clipPath>
</defs>
</svg>
