<svg width="110" height="108" viewBox="0 0 110 108" fill="none" xmlns="http://www.w3.org/2000/svg">
<path d="M55 0C24.6125 0 0 24.0997 0 53.8542C0 77.6846 15.7437 97.8126 37.6062 104.948C40.3562 105.42 41.3875 103.804 41.3875 102.39C41.3875 101.111 41.3188 96.8702 41.3188 92.3599C27.5 94.8506 23.925 89.0613 22.825 86.032C22.2062 84.4837 19.525 79.7042 17.1875 78.4251C15.2625 77.4154 12.5125 74.9246 17.1188 74.8573C21.45 74.79 24.5438 78.7617 25.575 80.3773C30.525 88.5228 38.4313 86.234 41.5938 84.8203C42.075 81.3198 43.5187 78.9637 45.1 77.6173C32.8625 76.271 20.075 71.626 20.075 51.0268C20.075 45.1702 22.2063 40.3233 25.7125 36.5535C25.1625 35.2072 23.2375 29.6871 26.2625 22.2822C26.2625 22.2822 30.8688 20.8685 41.3875 27.8022C45.7875 26.5905 50.4625 25.9846 55.1375 25.9846C59.8125 25.9846 64.4875 26.5905 68.8875 27.8022C79.4063 20.8012 84.0125 22.2822 84.0125 22.2822C87.0375 29.6871 85.1125 35.2072 84.5625 36.5535C88.0688 40.3233 90.2 45.1029 90.2 51.0268C90.2 71.6934 77.3438 76.271 65.1063 77.6173C67.1 79.3003 68.8188 82.5315 68.8188 87.5803C68.8188 94.7833 68.75 100.573 68.75 102.39C68.75 103.804 69.7813 105.487 72.5313 104.948C83.4503 101.34 92.9386 94.4692 99.6602 85.3034C106.382 76.1375 109.998 65.1382 110 53.8542C110 24.0997 85.3875 0 55 0Z" fill="black"/>
</svg>
