<svg width="158" height="155" viewBox="0 0 158 155" fill="none" xmlns="http://www.w3.org/2000/svg">
<g filter="url(#filter0_d_3_29)">
<path d="M79 0C37.5625 0 4 33.5625 4 75C4 108.187 25.4687 136.219 55.2812 146.156C59.0312 146.812 60.4375 144.562 60.4375 142.594C60.4375 140.812 60.3438 134.906 60.3438 128.625C41.5 132.094 36.625 124.031 35.125 119.812C34.2812 117.656 30.625 111 27.4375 109.219C24.8125 107.812 21.0625 104.344 27.3438 104.25C33.25 104.156 37.4688 109.687 38.875 111.937C45.625 123.281 56.4063 120.094 60.7188 118.125C61.375 113.25 63.3437 109.969 65.5 108.094C48.8125 106.219 31.375 99.75 31.375 71.0625C31.375 62.9062 34.2813 56.1562 39.0625 50.9062C38.3125 49.0312 35.6875 41.3437 39.8125 31.0312C39.8125 31.0312 46.0938 29.0625 60.4375 38.7187C66.4375 37.0312 72.8125 36.1875 79.1875 36.1875C85.5625 36.1875 91.9375 37.0312 97.9375 38.7187C112.281 28.9687 118.563 31.0312 118.563 31.0312C122.688 41.3437 120.063 49.0312 119.313 50.9062C124.094 56.1562 127 62.8125 127 71.0625C127 99.8437 109.469 106.219 92.7813 108.094C95.5 110.437 97.8438 114.937 97.8438 121.969C97.8438 132 97.75 140.062 97.75 142.594C97.75 144.562 99.1563 146.906 102.906 146.156C117.796 141.131 130.734 131.563 139.9 118.798C149.066 106.033 153.997 90.7147 154 75C154 33.5625 120.438 0 79 0Z" fill="#0A66C2"/>
</g>
<defs>
<filter id="filter0_d_3_29" x="0" y="0" width="158" height="158" filterUnits="userSpaceOnUse" color-interpolation-filters="sRGB">
<feFlood flood-opacity="0" result="BackgroundImageFix"/>
<feColorMatrix in="SourceAlpha" type="matrix" values="0 0 0 0 0 0 0 0 0 0 0 0 0 0 0 0 0 0 127 0" result="hardAlpha"/>
<feOffset dy="4"/>
<feGaussianBlur stdDeviation="2"/>
<feComposite in2="hardAlpha" operator="out"/>
<feColorMatrix type="matrix" values="0 0 0 0 0 0 0 0 0 0 0 0 0 0 0 0 0 0 0.25 0"/>
<feBlend mode="normal" in2="BackgroundImageFix" result="effect1_dropShadow_3_29"/>
<feBlend mode="normal" in="SourceGraphic" in2="effect1_dropShadow_3_29" result="shape"/>
</filter>
</defs>
</svg>
