<svg width="112" height="106" viewBox="0 0 112 106" fill="none" xmlns="http://www.w3.org/2000/svg">
<g clip-path="url(#clip0_3_24)">
<path d="M0 0H111.653V106H0V0Z" fill="#F7DF1E"/>
<path d="M29.3579 88.5812L37.902 83.6721C39.5506 86.4467 41.0501 88.7945 44.6469 88.7945C48.0947 88.7945 50.2689 87.5142 50.2689 82.5338V48.6644H60.7612V82.6746C60.7612 92.9918 54.3909 97.6881 45.0966 97.6881C36.703 97.6881 31.8308 93.5612 29.3574 88.5804M66.4603 87.5138L75.0036 82.8179C77.2528 86.3047 80.1758 88.8661 85.3468 88.8661C89.6947 88.8661 92.4669 86.8024 92.4669 83.9561C92.4669 80.541 89.6188 79.3311 84.8221 77.3394L82.1995 76.2711C74.6294 73.2125 69.608 69.37 69.608 61.2585C69.608 53.7871 75.6037 48.0946 84.9726 48.0946C91.643 48.0946 96.4397 50.3007 99.887 56.0641L91.7171 61.0452C89.918 57.9857 87.9702 56.7763 84.9721 56.7763C81.899 56.7763 79.9503 58.6263 79.9503 61.0452C79.9503 64.0335 81.899 65.2438 86.3957 67.0939L89.0187 68.1609C97.9379 71.7902 102.959 75.4898 102.959 83.8141C102.959 92.7802 95.5395 97.6894 85.5714 97.6894C75.8283 97.6894 69.5326 93.2779 66.4599 87.5142" fill="black"/>
</g>
<defs>
<clipPath id="clip0_3_24">
<rect width="111.653" height="106" fill="white"/>
</clipPath>
</defs>
</svg>
