<svg width="150" height="150" viewBox="0 0 150 150" fill="none" xmlns="http://www.w3.org/2000/svg">
<g clip-path="url(#clip0_403_2)">
<path d="M114.844 0H35.1562C15.74 0 0 15.74 0 35.1562V114.844C0 134.26 15.74 150 35.1562 150H114.844C134.26 150 150 134.26 150 114.844V35.1562C150 15.74 134.26 0 114.844 0Z" fill="white"/>
<path d="M114.844 0H35.1562C15.74 0 0 15.74 0 35.1562V114.844C0 134.26 15.74 150 35.1562 150H114.844C134.26 150 150 134.26 150 114.844V35.1562C150 15.74 134.26 0 114.844 0Z" fill="#0A66C2"/>
<path d="M108.231 127.55H125.382C126.003 127.55 126.599 127.303 127.039 126.864C127.478 126.424 127.725 125.828 127.726 125.207L127.734 88.9711C127.734 70.0318 123.653 55.4742 101.521 55.4742C93.1072 55.1613 85.173 59.4984 80.8916 66.7406C80.8707 66.7758 80.8388 66.8032 80.8009 66.8185C80.7629 66.8339 80.721 66.8364 80.6815 66.8257C80.642 66.8151 80.607 66.7917 80.582 66.7593C80.557 66.7269 80.5433 66.6872 80.543 66.6463V59.5664C80.543 58.9448 80.296 58.3487 79.8565 57.9091C79.417 57.4696 78.8208 57.2227 78.1992 57.2227H61.9236C61.302 57.2227 60.7059 57.4696 60.2664 57.9091C59.8268 58.3487 59.5799 58.9448 59.5799 59.5664V125.203C59.5799 125.825 59.8268 126.421 60.2664 126.86C60.7059 127.3 61.302 127.547 61.9236 127.547H79.0729C79.6945 127.547 80.2906 127.3 80.7301 126.86C81.1697 126.421 81.4166 125.825 81.4166 125.203V92.758C81.4166 83.584 83.1568 74.6994 94.5305 74.6994C105.742 74.6994 105.888 85.1971 105.888 93.3521V125.206C105.888 125.828 106.135 126.424 106.574 126.863C107.014 127.303 107.61 127.55 108.231 127.55ZM22.2656 34.9377C22.2656 41.8898 27.9885 47.6098 34.9406 47.6098C41.891 47.6092 47.6103 41.8857 47.6103 34.9354C47.6092 27.985 41.8893 22.2656 34.9383 22.2656C27.9855 22.2656 22.2656 27.9861 22.2656 34.9377ZM26.3432 127.55H43.5152C44.1368 127.55 44.733 127.303 45.1725 126.863C45.6121 126.424 45.859 125.828 45.859 125.206V59.5664C45.859 58.9448 45.6121 58.3487 45.1725 57.9091C44.733 57.4696 44.1368 57.2227 43.5152 57.2227H26.3432C25.7216 57.2227 25.1254 57.4696 24.6859 57.9091C24.2463 58.3487 23.9994 58.9448 23.9994 59.5664V125.206C23.9994 125.828 24.2463 126.424 24.6859 126.863C25.1254 127.303 25.7216 127.55 26.3432 127.55Z" fill="white"/>
</g>
<defs>
<clipPath id="clip0_403_2">
<rect width="150" height="150" fill="white"/>
</clipPath>
</defs>
</svg>
