<svg width="175" height="141" viewBox="0 0 175 141" fill="none" xmlns="http://www.w3.org/2000/svg">
<path d="M138.144 43.873C136.356 43.3175 134.553 42.8029 132.736 42.3296C133.041 41.2005 133.322 40.085 133.572 38.9891C137.666 20.9934 134.989 6.49567 125.847 1.72232C117.082 -2.85372 102.748 1.91784 88.2705 13.3264C86.8437 14.4528 85.4486 15.6117 84.0864 16.8019C83.1746 16.0104 82.2466 15.2343 81.303 14.474C66.1302 2.27561 50.9219 -2.86561 41.7899 1.92141C33.0326 6.51171 30.4395 20.1406 34.1254 37.1956C34.4921 38.8847 34.9061 40.5651 35.3671 42.2351C33.2144 42.789 31.1371 43.3786 29.1492 44.0061C11.3602 49.6222 0 58.423 0 67.5519C0 76.9804 12.1957 86.4373 30.7237 92.1717C32.2258 92.6346 33.7404 93.0636 35.2661 93.4583C34.7706 95.257 34.3306 97.0679 33.9469 98.8889C30.4329 115.648 33.177 128.955 41.9106 133.516C50.9311 138.226 66.0711 133.385 80.8127 121.716C82.0081 120.768 83.1772 119.792 84.3188 118.791C85.7939 120.079 87.3084 121.331 88.8605 122.543C103.141 133.669 117.244 138.162 125.969 133.588C134.981 128.864 137.91 114.569 134.107 97.1774C133.808 95.8148 133.472 94.4591 133.1 93.1112C134.163 92.826 135.207 92.5324 136.224 92.2269C155.486 86.4486 168.018 77.1064 168.018 67.5519C168.018 58.3898 156.291 49.5295 138.144 43.873V43.873ZM133.967 86.0582C133.048 86.3333 132.105 86.599 131.145 86.8575C129.018 80.7619 126.149 74.2805 122.637 67.5834C125.988 61.0462 128.747 54.6475 130.814 48.5917C132.533 49.0422 134.2 49.517 135.808 50.018C151.357 54.865 160.84 62.0304 160.84 67.5519C160.84 73.4331 150.598 81.0679 133.967 86.0582V86.0582ZM127.066 98.4396C128.748 106.13 128.987 113.083 127.874 118.519C126.873 123.403 124.861 126.66 122.372 127.964C117.078 130.739 105.754 127.132 93.5421 117.616C92.0984 116.489 90.6896 115.326 89.3173 114.128C94.052 109.439 98.7834 103.989 103.401 97.9357C111.524 97.2832 119.198 96.2158 126.157 94.7592C126.492 95.9793 126.795 97.2065 127.066 98.4396V98.4396ZM57.281 127.484C52.1079 129.138 47.9875 129.186 45.4968 127.886C40.197 125.118 37.9937 114.433 40.999 100.101C41.3563 98.4077 41.7653 96.7234 42.2257 95.0504C49.1079 96.4292 56.7258 97.4204 64.8674 98.0183C69.5168 103.942 74.3847 109.386 79.2907 114.153C78.2481 115.067 77.1808 115.957 76.0898 116.823C69.5706 121.982 63.0383 125.643 57.281 127.484V127.484ZM33.0457 86.0219C24.8529 83.4861 18.0869 80.1907 13.4493 76.5947C9.28168 73.3635 7.17818 70.1549 7.17818 67.5519C7.17818 62.012 16.2991 54.9458 31.5119 50.1434C33.3581 49.561 35.2903 49.0113 37.2954 48.4954C39.3983 54.6879 42.1561 61.1627 45.4843 67.71C42.1128 74.3542 39.3156 80.9324 37.1924 87.198C35.7997 86.8368 34.4171 86.4447 33.0457 86.0219V86.0219ZM41.1697 35.947C38.0121 21.3351 40.109 10.3128 45.3865 7.54637C51.0072 4.59988 63.4366 8.80092 76.5375 19.3341C77.3917 20.0226 78.2322 20.7249 79.0584 21.4409C74.1767 26.1875 69.3534 31.5914 64.7453 37.4796C56.8432 38.1429 49.2792 39.2078 42.3248 40.6347C41.8963 39.0814 41.5112 37.5185 41.1697 35.9475V35.947ZM113.645 52.1521C112.003 49.5829 110.299 47.0461 108.536 44.5434C113.897 45.1573 119.033 45.972 123.856 46.9681C122.408 51.1709 120.603 55.5645 118.479 60.0692C116.926 57.4013 115.314 54.7617 113.645 52.1521V52.1521ZM84.0897 26.0859C87.4002 29.3337 90.7159 32.9595 93.9772 36.8937C87.3615 36.6107 80.7347 36.6096 74.1189 36.8901C77.3834 32.9921 80.7274 29.3711 84.0897 26.0859ZM54.3446 52.1967C52.6962 54.7853 51.1147 57.4084 49.6014 60.0639C47.5117 55.5752 45.7232 51.1614 44.2629 46.8991C49.0567 45.9281 54.1687 45.1341 59.4954 44.5315C57.7125 47.0495 55.9951 49.6051 54.3446 52.1961V52.1967ZM59.6484 91.0348C54.1451 90.4785 48.9562 89.7256 44.1638 88.7806C45.6471 84.4423 47.4749 79.9346 49.6099 75.3496C51.1292 78.0071 52.7173 80.6318 54.3729 83.2216C56.0754 85.8841 57.8382 88.4918 59.6484 91.0348ZM84.2879 109.476C80.8856 106.152 77.4924 102.475 74.1786 98.5211C77.3959 98.6352 80.6756 98.6934 84.009 98.6934C87.4337 98.6934 90.819 98.6239 94.1511 98.4896C90.8794 102.515 87.5761 106.198 84.2879 109.476ZM118.547 75.1155C120.792 79.751 122.685 84.2349 124.188 88.4989C119.317 89.5057 114.057 90.3163 108.515 90.9183C110.291 88.3691 112.011 85.7882 113.673 83.1771C115.364 80.5229 116.988 77.8351 118.547 75.1155V75.1155ZM107.456 79.9299C104.911 83.9332 102.223 87.8606 99.3958 91.7057C94.2749 92.0341 89.1427 92.1973 84.009 92.1948C78.7801 92.1948 73.6943 92.0474 68.7968 91.7598C65.896 87.9236 63.1566 83.9893 60.5843 79.9655H60.5849C58.0248 75.963 55.6334 71.8739 53.4159 67.7071C55.6277 63.5392 58.0118 59.4482 60.5633 55.4427L60.5626 55.4433C63.1131 51.4367 65.8307 47.5193 68.7095 43.6995C73.7061 43.3572 78.83 43.1789 84.0083 43.1789H84.009C89.211 43.1789 94.3415 43.359 99.3367 43.7036C102.186 47.5177 104.887 51.4217 107.432 55.4082C109.992 59.4049 112.408 63.476 114.676 67.6149C112.431 71.7962 110.023 75.9038 107.456 79.9299V79.9299ZM122.263 7.35263C127.889 10.2908 130.077 22.1392 126.542 37.6769C126.316 38.6682 126.063 39.6779 125.787 40.7019C118.816 39.2447 111.246 38.1613 103.321 37.488C98.7047 31.5349 93.9208 26.1227 89.1185 21.4373C90.377 20.3388 91.6656 19.2687 92.9829 18.2282C105.387 8.45386 116.981 4.59453 122.263 7.35263V7.35263ZM84.009 53.9665C92.295 53.9665 99.0125 60.049 99.0125 67.5519C99.0125 75.0549 92.295 81.1375 84.009 81.1375C75.723 81.1375 69.0055 75.0549 69.0055 67.5519C69.0055 60.049 75.723 53.9665 84.009 53.9665V53.9665Z" fill="#00D8FF"/>
</svg>
